PathFileType	4	(X/Y/Z)	/Users/itak/Documents/Research/Walk-IL/dataset/trc/00416_00012.trc
DataRate	CameraRate	NumFrames	NumMarkers	Units	OrigDataRate	OrigDataStartFrame	OrigNumFrames
100.000000	100.000000	4	56	mm	100.000000	446	595
Frame#	Time	RPSI			LPSI			L3			STRN			T10			C7			CLAV			RBAK			LBAK			LSHO			LUPA			LAEL			LAOL			LWTS			LWPS			LFRA			LHPS			RSHO			RUPA			RAEL			RAOL			RWTS			RWPS			RFRA			RIFD			RHTS			RHPS			RBHD			LFHD			RFHD			LBHD			LHIP			RASI			LASI			LKNE			LTHI			LANK			LTIP			LTOE			LMT1			LMT5			LHEE			RKNE			RTHI			RANK			RTIP			RTOE			RMT1			RMT5			RHEE			LIFD			LHTS			RHIP			*53			*54			*55			
		X1	Y1	Z1	X2	Y2	Z2	X3	Y3	Z3	X4	Y4	Z4	X5	Y5	Z5	X6	Y6	Z6	X7	Y7	Z7	X8	Y8	Z8	X9	Y9	Z9	X10	Y10	Z10	X11	Y11	Z11	X12	Y12	Z12	X13	Y13	Z13	X14	Y14	Z14	X15	Y15	Z15	X16	Y16	Z16	X17	Y17	Z17	X18	Y18	Z18	X19	Y19	Z19	X20	Y20	Z20	X21	Y21	Z21	X22	Y22	Z22	X23	Y23	Z23	X24	Y24	Z24	X25	Y25	Z25	X26	Y26	Z26	X27	Y27	Z27	X28	Y28	Z28	X29	Y29	Z29	X30	Y30	Z30	X31	Y31	Z31	X32	Y32	Z32	X33	Y33	Z33	X34	Y34	Z34	X35	Y35	Z35	X36	Y36	Z36	X37	Y37	Z37	X38	Y38	Z38	X39	Y39	Z39	X40	Y40	Z40	X41	Y41	Z41	X42	Y42	Z42	X43	Y43	Z43	X44	Y44	Z44	X45	Y45	Z45	X46	Y46	Z46	X47	Y47	Z47	X48	Y48	Z48	X49	Y49	Z49	X50	Y50	Z50	X51	Y51	Z51	X52	Y52	Z52	X53	Y53	Z53	X54	Y54	Z54	X55	Y55	Z55	X56	Y56	Z56	

447	4.46	189.2694396972656	963.82421875	527.92431640625	321.8539733886719	960.6802368164062	529.7715454101562	250.6135711669922	1048.322631835938	527.4918212890625	232.3541259765625	1210.306884765625	758.123046875	254.1295928955078	1150.113403320312	513.4762573242188	259.9958190917969	1401.421630859375	543.61962890625	238.0032806396484	1326.308959960938	699.9744873046875	197.7561187744141	1255.82763671875	494.1816711425781	363.1572875976562	1365.0625	538.7308959960938	401.9292297363281	1384.630737304688	628.8887939453125	476.92919921875	1269.239013671875	620.5411376953125	510.9530029296875	1082.991333007812	668.9530029296875	455.7364501953125	1044.890747070312	613.5376586914062	480.0206298828125	957.4302978515625	849.5626831054688	545.30908203125	919.9133911132812	814.3008422851562	527.0670166015625	1004.971496582031	723.4432983398438	544.3960571289062	861.5807495117188	878.4191284179688	98.19473266601562	1382.19970703125	583.4898071289062	44.21531295776367	1318.924560546875	559.530517578125	13.88014507293701	1058.47509765625	531.895751953125	108.6640167236328	1052.166870117188	528.3549194335938	27.54050064086914	830.1853637695312	638.665283203125	-26.05945205688477	824.1661376953125	586.8707885742188	-6.11707592010498	991.873046875	547.4593505859375	25.55179786682129	655.5653076171875	612.7672119140625	10.73009777069092	722.86181640625	636.9176025390625	-23.9705753326416	737.3037109375	578.3810424804688	171.0859527587891	1593.026245117188	586.0726928710938	299.7412414550781	1587.646118164062	738.5602416992188	179.5533599853516	1594.69873046875	720.6212158203125	332.1096801757812	1582.941162109375	593.1039428710938	434.5315856933594	963.781005859375	619.1962890625	122.4353790283203	966.1431274414062	742.5161743164062	387.6439819335938	964.831787109375	737.8276977539062	386.1802978515625	471.595947265625	740.7518310546875	406.323974609375	612.4581298828125	714.0478515625	351.9319152832031	43.33465194702148	626.6626586914062	379.2252502441406	238.7445831298828	691.7289428710938	279.4701538085938	38.90573120117188	841.7481689453125	251.3480682373047	40.10731887817383	757.5667114257812	357.1010437011719	40.22256469726562	752.8781127929688	298.2254028320312	39.35480499267578	586.5676879882812	101.4652709960938	476.2317810058594	761.8068237304688	71.26998138427734	730.0715942382812	732.281005859375	118.2289733886719	76.6148681640625	604.7251586914062	108.7037353515625	349.893798828125	742.0355834960938	167.7336578369141	57.84663391113281	779.0255737304688	203.5662078857422	57.30589294433594	709.5100708007812	105.5149612426758	56.11629104614258	686.2508544921875	176.5894927978516	72.127197265625	535.376220703125	505.5108947753906	818.5641479492188	961.4097900390625	509.1636047363281	894.102783203125	920.7510986328125	72.03712463378906	947.4389038085938	609.3040771484375	nan	nan	nan	nan	nan	nan	nan	nan	nan	
448	4.47	189.2688446044922	964.2498168945312	530.7637939453125	321.8233947753906	960.72802734375	532.3749389648438	250.7323455810547	1048.663696289062	530.3507690429688	232.815673828125	1210.412841796875	761.1485595703125	254.5108032226562	1150.42724609375	516.3883666992188	260.6159057617188	1401.72216796875	546.8604736328125	238.4945068359375	1326.482666015625	703.0993041992188	198.4155578613281	1256.205322265625	497.1925659179688	363.7834777832031	1365.376831054688	541.9922485351562	402.5340576171875	1384.804443359375	632.2086791992188	477.4501342773438	1269.363159179688	623.7188110351562	511.281982421875	1083.232543945312	671.9276123046875	456.0848693847656	1044.963500976562	616.4788818359375	479.6045227050781	959.6970825195312	853.4766235351562	545.1884765625	921.9276123046875	818.9620361328125	527.1819458007812	1005.915283203125	727.0167236328125	543.9599609375	864.2586059570312	883.7938232421875	98.80654144287109	1382.517700195312	586.5377197265625	44.89480972290039	1319.310546875	562.3734130859375	14.86613941192627	1059.009155273438	533.6727294921875	109.7074966430664	1052.762573242188	530.580322265625	28.13057518005371	830.5069580078125	640.0540771484375	-25.23598670959473	824.5287475585938	588.0252075195312	-5.17743968963623	992.328857421875	548.9876708984375	26.26837730407715	655.934814453125	613.8587646484375	11.36354541778564	723.200927734375	638.0630493164062	-22.98316192626953	737.6837768554688	579.4222412109375	171.5481719970703	1593.31396484375	589.5615844726562	300.0478210449219	1587.712036132812	742.1848754882812	179.8626098632812	1594.734741210938	724.1087036132812	332.5617065429688	1583.255126953125	596.7066650390625	434.5813293457031	963.5113525390625	621.697998046875	122.8351287841797	966.565185546875	745.4772338867188	388.2283630371094	964.77685546875	740.4208374023438	386.2250061035156	471.3218078613281	742.20458984375	406.3802185058594	612.2388305664062	715.8117065429688	351.8727416992188	43.38575744628906	626.6735229492188	379.2398071289062	238.65869140625	692.3787841796875	279.5080871582031	38.90170288085938	841.7765502929688	251.4576110839844	40.18595504760742	757.6189575195312	357.095703125	40.20150375366211	752.8783569335938	298.0259399414062	39.33723449707031	586.51318359375	102.0107116699219	476.0619812011719	763.4691162109375	71.44744873046875	730.4468994140625	734.815185546875	118.126091003418	73.19077301025391	615.0455322265625	109.1679458618164	349.4045104980469	746.078857421875	167.9336395263672	58.64777755737305	789.8695678710938	203.7789001464844	56.07341003417969	720.4441528320312	105.5938415527344	55.08897018432617	697.3611450195312	176.3634033203125	66.73743438720703	545.72509765625	504.5869140625	822.1296997070312	967.012939453125	508.4234008789062	897.1929321289062	925.5325927734375	72.20014190673828	947.8955078125	612.2394409179688	nan	nan	nan	nan	nan	nan	nan	nan	nan	
449	4.48	189.1768341064453	964.62646484375	533.4835205078125	321.7047424316406	960.7379760742188	534.8489379882812	250.7455902099609	1048.999877929688	533.09765625	233.2266387939453	1210.479248046875	764.07177734375	254.8051452636719	1150.720947265625	519.2346801757812	261.1596984863281	1401.9931640625	550.0098266601562	238.9455108642578	1326.630126953125	706.132080078125	198.9656066894531	1256.571166992188	500.0848693847656	364.3179626464844	1365.647827148438	545.1299438476562	403.0890808105469	1384.923461914062	635.3984375	477.89794921875	1269.4150390625	626.7164306640625	511.5368347167969	1083.3701171875	674.6630859375	456.3217468261719	1044.983032226562	619.1912841796875	479.1675720214844	961.635986328125	857.031982421875	544.9928588867188	923.658447265625	823.1878051757812	527.2175903320312	1006.669006347656	730.2802124023438	543.4512939453125	866.5496826171875	888.6259765625	99.35198211669922	1382.828125	589.528564453125	45.48538208007812	1319.685791015625	565.1808471679688	15.69333076477051	1059.53369140625	535.4716796875	110.5868072509766	1053.337646484375	532.7586059570312	28.6609001159668	830.9014892578125	641.6452026367188	-24.50642204284668	824.9033203125	589.419189453125	-4.39130687713623	992.7783203125	550.5958251953125	26.94561767578125	656.3501586914062	615.3744506835938	11.9235897064209	723.6137084960938	639.546630859375	-22.11722564697266	738.068359375	580.7897338867188	171.9706878662109	1593.564697265625	592.9276733398438	300.331298828125	1587.764526367188	745.6732788085938	180.1492919921875	1594.769653320312	727.477294921875	332.9700927734375	1583.519775390625	600.1931762695312	434.5121459960938	963.1660766601562	624.0940551757812	123.1750564575195	966.9375610351562	748.3296508789062	388.7084045410156	964.7102661132812	742.8671264648438	386.2212219238281	471.0621032714844	743.6370849609375	406.3743591308594	612.0189819335938	717.5136108398438	351.8166809082031	43.43766021728516	626.6828002929688	379.2456665039062	238.5743865966797	693.0176391601562	279.5272827148438	38.87457656860352	841.7890625	251.5921325683594	40.28081130981445	757.667724609375	357.093505859375	40.17772674560547	752.8797607421875	297.883544921875	39.35278701782227	586.45849609375	102.5979461669922	475.8290710449219	765.0419311523438	71.71013641357422	730.8135986328125	737.1146240234375	118.0827255249023	70.23256683349609	624.423828125	109.7363052368164	348.9383850097656	749.8197631835938	168.3520812988281	59.06635284423828	799.6038208007812	204.1267852783203	54.92530822753906	730.2164916992188	105.8400268554688	54.20082092285156	707.3956298828125	176.1151733398438	62.08705139160156	555.1055908203125	503.5967712402344	825.1848754882812	972.0142822265625	507.6551818847656	899.8409423828125	929.83935546875	72.40956115722656	948.3384399414062	614.956298828125	nan	nan	nan	nan	nan	nan	nan	nan	nan	
450	4.49	188.9949798583984	964.96337890625	536.0889282226562	321.4982299804688	960.7316284179688	537.1985473632812	250.6490478515625	1049.333129882812	535.72900390625	233.5848846435547	1210.507934570312	766.89306640625	255.0126342773438	1150.991455078125	522.0104370117188	261.6318359375	1402.234985351562	553.068359375	239.3540496826172	1326.749877929688	709.0736083984375	199.4108428955078	1256.931518554688	502.8450012207031	364.7658081054688	1365.876342773438	548.1527099609375	403.5910339355469	1384.990844726562	638.4677734375	478.2736206054688	1269.398681640625	629.552978515625	511.7176818847656	1083.406494140625	677.1801147460938	456.4702453613281	1044.950927734375	621.685302734375	478.7107849121094	963.2376098632812	860.2428588867188	544.7250366210938	925.0958862304688	826.9909057617188	527.1784057617188	1007.235168457031	733.2470703125	542.8818359375	868.4410400390625	892.9263305664062	99.83258056640625	1383.12744140625	592.456787109375	45.99112319946289	1320.049438476562	567.943603515625	16.36190414428711	1060.046020507812	537.2997436523438	111.2932434082031	1053.886474609375	534.89111328125	29.13961219787598	831.3564453125	643.4395141601562	-23.87259864807129	825.285400390625	591.050048828125	-3.755789279937744	993.2163696289062	552.2919921875	27.59773254394531	656.8009643554688	617.3046875	12.40790271759033	724.0852661132812	641.3549194335938	-21.42742729187012	738.4647827148438	582.4568481445312	172.3552703857422	1593.776733398438	596.177001953125	300.5982971191406	1587.797607421875	749.0270385742188	180.4155120849609	1594.799560546875	730.7321166992188	333.3370971679688	1583.736083984375	603.5630493164062	434.3150939941406	962.7399291992188	626.402099609375	123.4570999145508	967.2537841796875	751.0838623046875	389.07373046875	964.6249389648438	745.1723022460938	386.1710205078125	470.8233642578125	745.0360717773438	406.3101196289062	611.8060302734375	719.1468505859375	351.7673645019531	43.4858512878418	626.68896484375	379.2513122558594	238.49658203125	693.634765625	279.5281677246094	38.82644271850586	841.7830810546875	251.735107421875	40.38088989257812	757.7081298828125	357.0984802246094	40.14683532714844	752.8831787109375	297.7820434570312	39.3891487121582	586.4072265625	103.2033386230469	475.5419616699219	766.5164794921875	72.00511169433594	731.1593627929688	739.2261962890625	118.1275329589844	67.70195770263672	632.8329467773438	110.3893203735352	348.484130859375	753.2518920898438	168.9664459228516	58.97819519042969	808.2820434570312	204.6015472412109	53.79920959472656	738.8331298828125	106.2474746704102	53.38144683837891	716.296142578125	175.8897399902344	58.14972686767578	563.4734497070312	502.5591735839844	827.7066040039062	976.4306640625	506.8695678710938	902.0331420898438	933.6875610351562	72.6353759765625	948.7601928710938	617.4928588867188	nan	nan	nan	nan	nan	nan	nan	nan	nan	
